# 3ds Max Wavefront OBJ Exporter v0.97b - (c)2007 guruware
# File Created: 03.02.2017 15:11:19

mtllib mrau.mtl

#
# object Box002
#

v  14.518505 11.351816 56.058178
v  -0.000002 11.351814 56.058182
v  45.693085 21.535006 -2.393560
v  -0.000001 7.026876 -4.081175
v  22.196983 -43.679081 63.777321
v  18.645847 -45.543659 -9.606413
v  0.000007 -45.543663 -9.606409
v  9.144974 3.877092 56.712132
v  0.000005 -36.299416 62.036945
v  14.747068 -36.289875 62.145905
v  9.144975 2.730525 43.606808
v  -0.000000 2.730524 43.606808
v  14.747068 -35.575542 47.135544
v  19.051346 -21.134600 60.615028
v  15.659968 -21.660177 -8.670584
v  12.639621 -21.179504 60.101776
v  0.000003 -20.837498 45.808075
v  12.639621 -20.837496 45.808075
v  15.641009 -47.033813 -57.065338
v  30.088535 -35.245201 -56.483757
v  49.894627 24.195948 22.644249
v  14.404108 9.687820 32.919891
v  14.221174 7.026879 -4.081179
v  14.404108 9.687820 32.919891
v  30.723341 -32.171650 -47.468742
v  14.659224 -37.157616 -56.129517
v  14.659224 -37.157616 -56.129517
v  15.294030 -32.697407 -42.470695
v  15.294030 -32.697407 -42.470695
v  15.294030 -32.697407 -42.470695
v  6.580165 -46.569168 -42.267059
v  8.555209 -45.801094 -14.325388
v  6.530367 -57.356052 -17.721632
v  0.000009 -57.358913 -17.812857
v  -14.518509 11.351812 56.058178
v  -14.404112 9.687817 32.919891
v  -14.221176 7.026874 -4.081179
v  -22.196972 -43.679089 63.777321
v  0.000007 -43.679085 63.777328
v  -18.645832 -45.543667 -9.606413
v  -9.144975 2.730523 43.606808
v  -12.639615 -20.837500 45.808075
v  -15.659963 -21.660181 -8.670584
v  0.000003 -21.660179 -8.670576
v  -19.051338 -21.134607 60.615028
v  -14.404112 9.687817 32.919891
v  -0.000001 3.877090 56.712132
v  -9.144976 3.877089 56.712132
v  -14.747057 -36.289883 62.145905
v  -12.639615 -21.179508 60.101776
v  -14.747057 -35.575550 47.135544
v  0.000005 -35.575546 47.135544
v  -14.659212 -37.157623 -56.129517
v  -15.640996 -47.033821 -57.065338
v  0.000007 -47.033817 -57.065338
v  0.000006 -37.157619 -56.129509
v  -14.659212 -37.157623 -56.129517
v  0.000007 -45.803959 -14.416632
v  -8.555196 -45.801094 -14.325388
v  -15.294021 -32.697414 -42.470695
v  -15.294021 -32.697414 -42.470695
v  -15.294021 -32.697414 -42.470695
v  -49.894634 24.195932 22.644249
v  -45.693092 21.534990 -2.393560
v  -30.088524 -35.245209 -56.483757
v  -30.723330 -32.171658 -47.468742
v  -6.580151 -46.569168 -42.267059
v  0.000007 -46.572769 -42.381653
v  -6.530350 -57.356052 -17.721632
# 69 vertices

vn -0.000000 0.997424 -0.071730
vn 0.000000 -0.999677 0.025400
vn 0.000000 0.092996 0.995667
vn -0.000000 0.092996 0.995667
vn -0.000000 0.091352 0.995819
vn 0.000000 0.091201 0.995833
vn -0.000000 0.157973 -0.987443
vn 0.991202 0.125199 -0.042942
vn 0.993859 0.103231 -0.039846
vn 0.995045 0.091492 -0.038914
vn 0.000000 0.087156 0.996195
vn -0.002933 0.221170 0.975231
vn -0.086943 0.124534 0.988399
vn 0.000000 -0.996195 0.087156
vn -0.000501 0.998846 0.048026
vn -0.990085 -0.140381 -0.005060
vn -0.000000 0.089708 0.995968
vn 0.000000 0.089708 0.995968
vn -0.000001 0.094333 -0.995541
vn -0.000000 0.094333 -0.995541
vn -1.000000 -0.000000 -0.000000
vn 0.990257 0.130028 -0.049833
vn 0.990729 0.125863 -0.051141
vn -0.069213 0.126989 0.989486
vn -0.989886 -0.141807 0.004164
vn -0.000077 -0.998523 0.054332
vn -0.000000 0.950602 -0.310414
vn 0.993676 0.091006 -0.065772
vn 0.998637 0.051469 -0.008639
vn 0.990579 0.136155 -0.014689
vn -0.402490 0.914060 -0.049966
vn 0.402490 -0.914060 0.049966
vn 0.991065 0.106171 -0.080730
vn 0.990690 0.125886 -0.051833
vn -0.127659 0.943339 -0.306292
vn 0.992359 0.108465 -0.058813
vn 0.127659 -0.943339 0.306292
vn 0.004774 -0.999550 0.029621
vn 0.000000 -0.999507 0.031383
vn -0.011501 -0.281046 0.959626
vn 0.985972 -0.153534 -0.065473
vn 0.006765 -0.915552 -0.402142
vn -0.000000 0.091201 0.995833
vn 0.000000 0.157973 -0.987443
vn -0.991202 0.125199 -0.042942
vn -0.995045 0.091492 -0.038914
vn -0.993859 0.103231 -0.039846
vn -0.000000 0.087156 0.996195
vn 0.002933 0.221170 0.975231
vn 0.086943 0.124534 0.988399
vn 0.000500 0.998846 0.048026
vn 0.990085 -0.140381 -0.005060
vn 0.000001 0.094333 -0.995541
vn 0.000000 0.094333 -0.995541
vn -0.990729 0.125863 -0.051141
vn -0.990257 0.130027 -0.049833
vn 0.069213 0.126989 0.989486
vn 0.989886 -0.141807 0.004164
vn 0.000077 -0.998523 0.054332
vn 0.000000 0.950602 -0.310413
vn -0.993676 0.091006 -0.065772
vn -0.998637 0.051468 -0.008639
vn -0.990579 0.136155 -0.014689
vn 0.402490 0.914060 -0.049966
vn -0.402490 -0.914060 0.049966
vn -0.991065 0.106170 -0.080730
vn -0.990690 0.125885 -0.051833
vn 0.127659 0.943339 -0.306292
vn -0.992359 0.108465 -0.058813
vn -0.127659 -0.943339 0.306292
vn -0.004774 -0.999550 0.029621
vn 0.011501 -0.281046 0.959625
vn -0.985972 -0.153534 -0.065473
vn -0.006764 -0.915552 -0.402142
# 74 vertex normals

vt -1.015625 0.796875 0.000000
vt -0.906250 0.796875 0.000000
vt -0.734375 0.796875 0.000000
vt -0.734375 0.859375 0.000000
vt -1.015625 0.859375 0.000000
vt 0.375000 1.000000 0.000000
vt 0.500000 1.000000 0.000000
vt 0.500000 0.500000 0.000000
vt 0.375000 0.500000 0.000000
vt 0.562500 0.703125 0.000000
vt 0.625000 0.703125 0.000000
vt 0.625000 0.843750 0.000000
vt 0.562500 0.843750 0.000000
vt 0.750000 0.375000 0.000000
vt 0.625000 0.375000 0.000000
vt 0.625000 0.625000 0.000000
vt 0.750000 0.625000 0.000000
vt 0.281250 1.000000 0.000000
vt 0.296875 0.500000 0.000000
vt 0.125000 0.750000 0.000000
vt 0.500000 0.625000 0.000000
vt 0.625000 0.656250 0.000000
vt 0.531250 0.656250 0.000000
vt 0.625000 1.000000 0.000000
vt 0.531250 0.968750 0.000000
vt 0.625000 0.968750 0.000000
vt 0.500000 0.875000 0.000000
vt 0.531250 0.875000 0.000000
vt 0.562500 0.953125 0.000000
vt 0.625000 0.953125 0.000000
vt 0.562500 0.875000 0.000000
vt 0.875000 0.687500 0.000000
vt 0.875000 0.750000 0.000000
vt 0.750000 0.750000 0.000000
vt 0.750000 0.687500 0.000000
vt 0.531250 0.703125 0.000000
vt 0.500000 0.437500 0.000000
vt 0.437500 0.437500 0.000000
vt -0.687500 0.765625 0.000000
vt -0.687500 0.703125 0.000000
vt -0.562500 0.765625 0.000000
vt -0.468750 0.703125 0.000000
vt -0.468750 0.765625 0.000000
vt 0.375000 0.156250 0.000000
vt 0.296875 0.328125 0.000000
vt 0.125000 0.500000 0.000000
vt 0.125000 1.000000 0.000000
vt -0.859375 0.640625 0.000000
vt -0.750000 0.656250 0.000000
vt 0.875000 1.000000 0.000000
vt 0.625000 0.750000 0.000000
vt 0.296875 0.156250 0.000000
vt -0.125000 0.468750 0.000000
vt -0.125000 0.531250 0.000000
vt 0.000000 0.875000 0.000000
vt 0.125000 0.875000 0.000000
vt -0.000000 1.000000 0.000000
vt 0.000000 1.000000 0.000000
vt 0.437500 0.265625 0.000000
vt 0.500000 0.265625 0.000000
vt 0.500000 0.156250 0.000000
vt 0.625000 0.562500 0.000000
vt 0.625000 0.484375 0.000000
vt 0.562500 0.484375 0.000000
vt 0.562500 0.562500 0.000000
vt 0.515625 0.250000 0.000000
vt 0.562500 0.328125 0.000000
vt 0.515625 0.625000 0.000000
vt 0.625000 0.250000 0.000000
vt 0.562500 0.250000 0.000000
vt 0.562500 0.500000 0.000000
vt 0.625000 0.500000 0.000000
vt -1.015625 0.921875 0.000000
vt -0.734375 0.921875 0.000000
vt -0.906250 0.921875 0.000000
vt 0.625000 0.687500 0.000000
vt -0.468750 0.843750 0.000000
vt -0.531250 0.843750 0.000000
vt -0.687500 0.843750 0.000000
vt 0.125000 0.703125 0.000000
vt -0.750000 1.062500 0.000000
vt -0.859375 1.078125 0.000000
vt -0.750000 0.218750 0.000000
vt -0.687500 0.265625 0.000000
vt -0.125000 0.328125 0.000000
vt -0.125000 0.265625 0.000000
vt -0.000000 0.875000 0.000000
# 87 texture coords

g Box002
usemtl Standardmaterial
s 2
f -69/-87/-74 -48/-86/-74 -47/-85/-74 -66/-84/-74 -68/-83/-74 
s 4
f -65/-82/-73 -31/-81/-73 -63/-80/-73 -64/-79/-73 
s 8
f -59/-78/-72 -58/-77/-71 -53/-76/-70 -52/-75/-69 
s 32
f -66/-74/-68 -47/-73/-68 -55/-72/-68 -26/-71/-68 
s 64
f -56/-70/-67 -55/-69/-66 -46/-68/-65 
s off
f -69/-67/-64 -68/-72/-64 -23/-66/-64 -62/-65/-64 
f -31/-64/-63 -65/-81/-63 -60/-63/-63 -61/-62/-63 
f -65/-81/-62 -56/-61/-62 -54/-60/-62 -60/-63/-62 
f -62/-65/-61 -23/-66/-61 -58/-77/-61 -59/-78/-61 
f -61/-62/-60 -60/-63/-60 -57/-59/-60 -18/-58/-60 
f -60/-63/-59 -54/-60/-59 -52/-57/-59 -57/-59/-59 
s 8
f -53/-76/-70 -18/-58/-58 -57/-59/-57 -52/-75/-69 
s 32
f -43/-56/-56 -51/-55/-55 -15/-54/-55 -14/-53/-55 -44/-56/-54 
s 64
f -56/-70/-67 -65/-82/-53 -64/-79/-52 -55/-69/-66 
s off
f -56/-61/-51 -69/-67/-51 -62/-65/-51 -54/-60/-51 
f -54/-60/-50 -62/-52/-50 -59/-78/-50 -52/-57/-50 
f -64/-79/-49 -63/-80/-49 -12/-51/-49 -38/-50/-49 
f -26/-49/-48 -55/-48/-48 -42/-47/-48 -44/-46/-48 -14/-45/-48 
f -64/-79/-47 -51/-44/-47 -41/-43/-47 -40/-43/-47 
s 64
f -55/-69/-66 -47/-42/-46 -46/-68/-65 
f -48/-68/-45 -69/-41/-45 -56/-70/-67 -46/-68/-65 
s off
f -48/-86/-44 -49/-40/-44 -67/-39/-44 -47/-85/-44 
f -47/-64/-43 -67/-38/-43 -49/-55/-43 -46/-37/-43 
f -46/-68/-45 -49/-68/-45 -48/-68/-45 
f -51/-44/-42 -43/-36/-42 -41/-43/-42 
f -42/-43/-41 -55/-69/-41 -64/-79/-41 -40/-43/-41 
f -44/-35/-55 -50/-34/-55 -43/-35/-55 
f -42/-33/-40 -45/-32/-40 -50/-41/-40 -44/-31/-40 
f -41/-43/-39 -45/-43/-39 -40/-43/-39 
f -43/-41/-38 -50/-30/-38 -45/-33/-38 -41/-32/-38 
f -40/-43/-39 -45/-43/-39 -42/-43/-39 
f -39/-29/-37 -51/-44/-37 -64/-79/-37 -38/-50/-37 
f -2/-28/-36 -15/-27/-36 -51/-44/-36 -39/-29/-36 
f -12/-26/-35 -36/-25/-35 -37/-24/-35 -38/-23/-35 
f -38/-22/-34 -37/-21/-34 -39/-20/-34 
f -2/-19/-33 -39/-18/-33 -37/-17/-33 -36/-16/-33 
s 2
f -35/-15/-74 -68/-83/-74 -66/-84/-74 -33/-14/-74 -34/-13/-74 
s 4
f -32/-82/-73 -30/-79/-73 -63/-80/-73 -31/-81/-73 
s 8
f -29/-78/-71 -28/-75/-32 -53/-76/-70 -58/-77/-71 
s 32
f -66/-74/-68 -26/-71/-68 -27/-72/-31 -33/-73/-31 
s 64
f -25/-70/-30 -24/-68/-29 -27/-69/-28 
s off
f -35/-67/-27 -22/-65/-27 -23/-66/-27 -68/-72/-27 
f -31/-64/-26 -61/-62/-26 -21/-63/-26 -32/-81/-26 
f -32/-81/-25 -21/-63/-25 -20/-60/-25 -25/-61/-25 
f -22/-65/-61 -29/-78/-61 -58/-77/-61 -23/-66/-61 
f -61/-62/-24 -18/-58/-24 -19/-59/-24 -21/-63/-24 
f -21/-63/-23 -19/-59/-23 -28/-57/-23 -20/-60/-23 
s 8
f -53/-76/-70 -28/-75/-32 -19/-59/-58 -18/-58/-58 
s 32
f -17/-12/-22 -13/-12/-54 -14/-53/-55 -15/-54/-55 -16/-37/-21 
s 64
f -25/-70/-30 -27/-69/-28 -30/-79/-20 -32/-82/-19 
s off
f -25/-61/-18 -20/-60/-18 -22/-65/-18 -35/-67/-18 
f -20/-60/-17 -28/-57/-17 -29/-78/-17 -22/-52/-17 
f -30/-79/-16 -11/-50/-16 -12/-51/-16 -63/-80/-16 
f -26/-49/-15 -14/-45/-15 -13/-11/-15 -10/-10/-15 -27/-9/-15 
f -30/-44/-14 -8/-43/-14 -9/-43/-14 -16/-79/-14 
s 64
f -27/-69/-28 -24/-68/-29 -33/-42/-13 
f -34/-8/-12 -24/-68/-29 -25/-70/-30 -35/-41/-12 
s off
f -34/-13/-11 -33/-14/-11 -6/-7/-11 -7/-6/-11 
f -33/-64/-10 -24/-37/-10 -7/-55/-10 -6/-38/-10 
f -24/-5/-12 -34/-5/-12 -7/-4/-12 
f -16/-79/-9 -9/-43/-9 -17/-69/-9 
f -10/-43/-8 -8/-43/-8 -30/-44/-8 -27/-36/-8 
f -13/-3/-21 -17/-3/-21 -5/-2/-21 
f -10/-32/-7 -13/-41/-7 -5/-30/-7 -4/-1/-7 
f -9/-43/-6 -8/-43/-6 -4/-43/-6 
f -17/-41/-5 -9/-32/-5 -4/-33/-5 -5/-30/-5 
f -8/-43/-6 -10/-43/-6 -4/-43/-6 
f -3/-29/-4 -11/-50/-4 -30/-79/-4 -16/-44/-4 
f -2/-28/-36 -3/-29/-36 -16/-44/-36 -15/-27/-36 
f -12/-26/-3 -11/-23/-3 -1/-24/-3 -36/-25/-3 
f -11/-20/-2 -3/-22/-2 -1/-21/-2 
f -2/-19/-1 -36/-16/-1 -1/-17/-1 -3/-18/-1 
# 56 polygons - 16 triangles

